<?xml version="1.0" encoding="UTF-8" standalone="no"?>
<!-- Created with Inkscape (http://www.inkscape.org/) -->

<svg
   xmlns:dc="http://purl.org/dc/elements/1.1/"
   xmlns:cc="http://creativecommons.org/ns#"
   xmlns:rdf="http://www.w3.org/1999/02/22-rdf-syntax-ns#"
   xmlns:svg="http://www.w3.org/2000/svg"
   xmlns="http://www.w3.org/2000/svg"
   xmlns:sodipodi="http://sodipodi.sourceforge.net/DTD/sodipodi-0.dtd"
   xmlns:inkscape="http://www.inkscape.org/namespaces/inkscape"
   width="192.85715"
   height="192.85715"
   id="svg2"
   version="1.1"
   inkscape:version="0.48.4 r9939"
   sodipodi:docname="arrow_left.svg">
  <defs
     id="defs4" />
  <sodipodi:namedview
     id="base"
     pagecolor="#ffffff"
     bordercolor="#666666"
     borderopacity="1.0"
     inkscape:pageopacity="0.0"
     inkscape:pageshadow="2"
     inkscape:zoom="1.4"
     inkscape:cx="-14.462968"
     inkscape:cy="98.133423"
     inkscape:document-units="px"
     inkscape:current-layer="layer1"
     showgrid="false"
     fit-margin-top="5"
     fit-margin-left="5"
     fit-margin-right="5"
     fit-margin-bottom="5"
     inkscape:window-width="1072"
     inkscape:window-height="793"
     inkscape:window-x="477"
     inkscape:window-y="38"
     inkscape:window-maximized="0" />
  <metadata
     id="metadata7">
    <rdf:RDF>
      <cc:Work
         rdf:about="">
        <dc:format>image/svg+xml</dc:format>
        <dc:type
           rdf:resource="http://purl.org/dc/dcmitype/StillImage" />
        <dc:title></dc:title>
      </cc:Work>
    </rdf:RDF>
  </metadata>
  <g
     inkscape:label="Ebene 1"
     inkscape:groupmode="layer"
     id="layer1"
     transform="translate(-222.85715,-165.21932)">
    <g
       id="g3927"
       transform="matrix(-1,0,0,1,638.57145,0)">
      <path
         transform="translate(106.42858,13.57143)"
         d="m 304.28572,248.07646 c 0,50.49461 -40.93397,91.42858 -91.42857,91.42858 -50.49461,0 -91.42858,-40.93397 -91.42858,-91.42858 0,-50.49461 40.93397,-91.42857 91.42858,-91.42857 50.4946,0 91.42857,40.93396 91.42857,91.42857 z"
         sodipodi:ry="91.428574"
         sodipodi:rx="91.428574"
         sodipodi:cy="248.07646"
         sodipodi:cx="212.85715"
         id="path3122"
         style="opacity:0.75;fill:#999999;fill-rule:evenodd;stroke:none"
         sodipodi:type="arc" />
      <g
         style="opacity:0.75;fill:#ffffff;stroke:none"
         transform="translate(75.004732,7.0471768)"
         id="g3923">
        <path
           style="fill:#ffffff;fill-opacity:1;stroke:none"
           d="m 186.51537,254.48858 -0.15625,0.15625 51.78125,51.09375 6.0625,0 2.15625,-4.65625 0,-22.84375 42.125,0.34375 5.71875,-5.34375 -0.375,-18.75 -107.3125,0 z"
           id="path3899"
           inkscape:connector-curvature="0" />
        <path
           style="fill:#ffffff;fill-opacity:1;stroke:none"
           d="m 186.51537,254.71285 -0.15625,-0.15625 51.78125,-51.09375 6.0625,0 2.15625,4.65625 0,22.84375 42.125,-0.34375 5.71875,5.34375 -0.375,18.75 -107.3125,0 z"
           id="path3899-7"
           inkscape:connector-curvature="0" />
      </g>
    </g>
  </g>
</svg>
